{
  "asset": {
    "generator": "glTF-Transform v4.5.0",
    "version": "2.0"
  },
  "accessors": [
    {
      "type": "SCALAR",
      "componentType": 5123,
      "count": 26985,
      "bufferView": 0,
      "byteOffset": 0
    },
    {
      "type": "VEC3",
      "componentType": 5126,
      "count": 6064,
      "max": [
        1.3481357097625732,
        0.8209121227264404,
        0.6255689859390259
      ],
      "min": [
        -1.1840065717697144,
        -0.059473201632499695,
        -0.6073723435401917
      ],
      "bufferView": 1,
      "byteOffset": 0
    },
    {
      "type": "VEC3",
      "componentType": 5126,
      "count": 6064,
      "bufferView": 1,
      "byteOffset": 12
    },
    {
      "type": "VEC2",
      "componentType": 5126,
      "count": 6064,
      "bufferView": 1,
      "byteOffset": 24
    }
  ],
  "bufferViews": [
    {
      "buffer": 0,
      "byteOffset": 0,
      "byteLength": 53972,
      "target": 34963
    },
    {
      "buffer": 0,
      "byteOffset": 53972,
      "byteLength": 194048,
      "byteStride": 32,
      "target": 34962
    }
  ],
  "samplers": [
    {
      "magFilter": 9729,
      "minFilter": 9987,
      "wrapS": 10497,
      "wrapT": 10497
    }
  ],
  "textures": [
    {
      "source": 1,
      "sampler": 0
    },
    {
      "source": 0,
      "sampler": 0
    },
    {
      "source": 2,
      "sampler": 0
    }
  ],
  "images": [
    {
      "name": "boulder_02_nor_gl",
      "mimeType": "image/jpeg",
      "uri": "textures/namaqualand_boulder_02_nor_gl_1k.jpg"
    },
    {
      "name": "boulder_02_diff",
      "mimeType": "image/jpeg",
      "uri": "textures/namaqualand_boulder_02_diff_1k.jpg"
    },
    {
      "name": "boulder_02_rough",
      "mimeType": "image/jpeg",
      "uri": "textures/namaqualand_boulder_02_arm_1k.jpg"
    }
  ],
  "buffers": [
    {
      "uri": "namaqualand_boulder_02.bin",
      "byteLength": 248020
    }
  ],
  "materials": [
    {
      "name": "boulder_02",
      "doubleSided": true,
      "pbrMetallicRoughness": {
        "metallicFactor": 0,
        "baseColorTexture": {
          "index": 0
        },
        "metallicRoughnessTexture": {
          "index": 2
        }
      },
      "normalTexture": {
        "index": 1
      }
    }
  ],
  "meshes": [
    {
      "name": "boulder_02_5m",
      "primitives": [
        {
          "attributes": {
            "POSITION": 1,
            "NORMAL": 2,
            "TEXCOORD_0": 3
          },
          "mode": 4,
          "material": 0,
          "indices": 0
        }
      ]
    }
  ],
  "nodes": [
    {
      "name": "boulder_02",
      "mesh": 0
    }
  ],
  "scenes": [
    {
      "name": "Scene",
      "nodes": [
        0
      ]
    }
  ],
  "scene": 0
}