{
  "asset": {
    "generator": "glTF-Transform v4.5.0",
    "version": "2.0"
  },
  "accessors": [
    {
      "type": "SCALAR",
      "componentType": 5123,
      "count": 27000,
      "bufferView": 0,
      "byteOffset": 0
    },
    {
      "type": "VEC3",
      "componentType": 5126,
      "count": 4784,
      "max": [
        1.1818602085113525,
        1.867081642150879,
        1.4653747081756592
      ],
      "min": [
        -1.3363442420959473,
        -0.029385626316070557,
        -1.0290749073028564
      ],
      "bufferView": 1,
      "byteOffset": 0
    },
    {
      "type": "VEC3",
      "componentType": 5126,
      "count": 4784,
      "bufferView": 1,
      "byteOffset": 12
    },
    {
      "type": "VEC2",
      "componentType": 5126,
      "count": 4784,
      "bufferView": 1,
      "byteOffset": 24
    }
  ],
  "bufferViews": [
    {
      "buffer": 0,
      "byteOffset": 0,
      "byteLength": 54000,
      "target": 34963
    },
    {
      "buffer": 0,
      "byteOffset": 54000,
      "byteLength": 153088,
      "byteStride": 32,
      "target": 34962
    }
  ],
  "samplers": [
    {
      "magFilter": 9729,
      "minFilter": 9987,
      "wrapS": 10497,
      "wrapT": 10497
    }
  ],
  "textures": [
    {
      "source": 1,
      "sampler": 0
    },
    {
      "source": 0,
      "sampler": 0
    },
    {
      "source": 2,
      "sampler": 0
    }
  ],
  "images": [
    {
      "name": "boulder_04_nor_gl",
      "mimeType": "image/jpeg",
      "uri": "textures/namaqualand_boulder_04_nor_gl_1k.jpg"
    },
    {
      "name": "boulder_04_diff",
      "mimeType": "image/jpeg",
      "uri": "textures/namaqualand_boulder_04_diff_1k.jpg"
    },
    {
      "name": "boulder_04_rough",
      "mimeType": "image/jpeg",
      "uri": "textures/namaqualand_boulder_04_arm_1k.jpg"
    }
  ],
  "buffers": [
    {
      "uri": "namaqualand_boulder_04.bin",
      "byteLength": 207088
    }
  ],
  "materials": [
    {
      "name": "boulder_04",
      "doubleSided": true,
      "pbrMetallicRoughness": {
        "metallicFactor": 0,
        "baseColorTexture": {
          "index": 0
        },
        "metallicRoughnessTexture": {
          "index": 2
        }
      },
      "normalTexture": {
        "index": 1
      }
    }
  ],
  "meshes": [
    {
      "name": "realCap_Model_2",
      "primitives": [
        {
          "attributes": {
            "POSITION": 1,
            "NORMAL": 2,
            "TEXCOORD_0": 3
          },
          "mode": 4,
          "material": 0,
          "indices": 0
        }
      ]
    }
  ],
  "nodes": [
    {
      "name": "boulder_04",
      "mesh": 0
    }
  ],
  "scenes": [
    {
      "name": "Scene",
      "nodes": [
        0
      ]
    }
  ],
  "scene": 0
}