{
  "asset": {
    "generator": "glTF-Transform v4.5.0",
    "version": "2.0"
  },
  "accessors": [
    {
      "type": "SCALAR",
      "componentType": 5123,
      "count": 26988,
      "bufferView": 0,
      "byteOffset": 0
    },
    {
      "type": "VEC3",
      "componentType": 5126,
      "count": 5419,
      "max": [
        0.45009371638298035,
        2.332082748413086,
        0.938514769077301
      ],
      "min": [
        -2.2611024379730225,
        -0.13961930572986603,
        -1.188185453414917
      ],
      "bufferView": 1,
      "byteOffset": 0
    },
    {
      "type": "VEC3",
      "componentType": 5126,
      "count": 5419,
      "bufferView": 1,
      "byteOffset": 12
    },
    {
      "type": "VEC2",
      "componentType": 5126,
      "count": 5419,
      "bufferView": 1,
      "byteOffset": 24
    }
  ],
  "bufferViews": [
    {
      "buffer": 0,
      "byteOffset": 0,
      "byteLength": 53976,
      "target": 34963
    },
    {
      "buffer": 0,
      "byteOffset": 53976,
      "byteLength": 173408,
      "byteStride": 32,
      "target": 34962
    }
  ],
  "samplers": [
    {
      "magFilter": 9729,
      "minFilter": 9987,
      "wrapS": 10497,
      "wrapT": 10497
    }
  ],
  "textures": [
    {
      "source": 1,
      "sampler": 0
    },
    {
      "source": 0,
      "sampler": 0
    },
    {
      "source": 2,
      "sampler": 0
    }
  ],
  "images": [
    {
      "name": "rock_face_02_nor_gl",
      "mimeType": "image/jpeg",
      "uri": "textures/rock_face_02_nor_gl_2k.jpg"
    },
    {
      "name": "rock_face_02_diff",
      "mimeType": "image/jpeg",
      "uri": "textures/rock_face_02_diff_2k.jpg"
    },
    {
      "name": "rock_face_02_rough",
      "mimeType": "image/jpeg",
      "uri": "textures/rock_face_02_arm_2k.jpg"
    }
  ],
  "buffers": [
    {
      "uri": "rock_face_02.bin",
      "byteLength": 227384
    }
  ],
  "materials": [
    {
      "name": "rock_face_02",
      "doubleSided": true,
      "pbrMetallicRoughness": {
        "metallicFactor": 0,
        "baseColorTexture": {
          "index": 0
        },
        "metallicRoughnessTexture": {
          "index": 2
        }
      },
      "normalTexture": {
        "index": 1
      }
    }
  ],
  "meshes": [
    {
      "name": "rock_face_section_2_proxy",
      "primitives": [
        {
          "attributes": {
            "POSITION": 1,
            "NORMAL": 2,
            "TEXCOORD_0": 3
          },
          "mode": 4,
          "material": 0,
          "indices": 0
        }
      ]
    }
  ],
  "nodes": [
    {
      "name": "rock_face_02",
      "mesh": 0
    }
  ],
  "scenes": [
    {
      "name": "Scene",
      "nodes": [
        0
      ]
    }
  ],
  "scene": 0
}