{
  "asset": {
    "generator": "glTF-Transform v4.5.0",
    "version": "2.0"
  },
  "accessors": [
    {
      "type": "SCALAR",
      "componentType": 5123,
      "count": 27000,
      "bufferView": 0,
      "byteOffset": 0
    },
    {
      "type": "VEC3",
      "componentType": 5126,
      "count": 4812,
      "max": [
        0.15623357892036438,
        0.09424005448818207,
        0.15522664785385132
      ],
      "min": [
        -0.15684805810451508,
        0.0005474991630762815,
        -0.15391573309898376
      ],
      "bufferView": 1,
      "byteOffset": 0
    },
    {
      "type": "VEC2",
      "componentType": 5126,
      "count": 4812,
      "bufferView": 1,
      "byteOffset": 12
    },
    {
      "type": "VEC3",
      "componentType": 5126,
      "count": 4812,
      "bufferView": 1,
      "byteOffset": 20
    }
  ],
  "bufferViews": [
    {
      "buffer": 0,
      "byteOffset": 0,
      "byteLength": 54000,
      "target": 34963
    },
    {
      "buffer": 0,
      "byteOffset": 54000,
      "byteLength": 153984,
      "byteStride": 32,
      "target": 34962
    }
  ],
  "samplers": [
    {
      "magFilter": 9729,
      "minFilter": 9987,
      "wrapS": 10497,
      "wrapT": 10497
    }
  ],
  "textures": [
    {
      "source": 1,
      "sampler": 0
    },
    {
      "source": 0,
      "sampler": 0
    },
    {
      "source": 2,
      "sampler": 0
    }
  ],
  "images": [
    {
      "name": "wooden_bowl_01_nor_gl",
      "mimeType": "image/jpeg",
      "uri": "textures/wooden_bowl_01_nor_gl_1k.jpg"
    },
    {
      "name": "wooden_bowl_01_diff",
      "mimeType": "image/jpeg",
      "uri": "textures/wooden_bowl_01_diff_1k.jpg"
    },
    {
      "name": "wooden_bowl_01_rough",
      "mimeType": "image/jpeg",
      "uri": "textures/wooden_bowl_01_arm_1k.jpg"
    }
  ],
  "buffers": [
    {
      "uri": "wooden_bowl_01.bin",
      "byteLength": 207984
    }
  ],
  "materials": [
    {
      "name": "wooden_bowl_01",
      "doubleSided": true,
      "pbrMetallicRoughness": {
        "metallicFactor": 0,
        "baseColorTexture": {
          "index": 0
        },
        "metallicRoughnessTexture": {
          "index": 2
        }
      },
      "normalTexture": {
        "index": 1
      }
    }
  ],
  "meshes": [
    {
      "name": "wood_root_bowl_50k_uv.001",
      "primitives": [
        {
          "attributes": {
            "POSITION": 1,
            "TEXCOORD_0": 2,
            "NORMAL": 3
          },
          "mode": 4,
          "material": 0,
          "indices": 0
        }
      ]
    }
  ],
  "nodes": [
    {
      "name": "wooden_bowl_01",
      "mesh": 0
    }
  ],
  "scenes": [
    {
      "name": "Scene",
      "nodes": [
        0
      ]
    }
  ],
  "scene": 0
}