{
  "asset": {
    "generator": "glTF-Transform v4.5.0",
    "version": "2.0"
  },
  "accessors": [
    {
      "type": "SCALAR",
      "componentType": 5123,
      "count": 26994,
      "bufferView": 0,
      "byteOffset": 0
    },
    {
      "type": "VEC3",
      "componentType": 5126,
      "count": 4999,
      "max": [
        0.7289556264877319,
        0.5264180898666382,
        0.35002079606056213
      ],
      "min": [
        -0.6350750923156738,
        -0.007471412420272827,
        -0.39795854687690735
      ],
      "bufferView": 1,
      "byteOffset": 0
    },
    {
      "type": "VEC3",
      "componentType": 5126,
      "count": 4999,
      "bufferView": 1,
      "byteOffset": 12
    },
    {
      "type": "VEC2",
      "componentType": 5126,
      "count": 4999,
      "bufferView": 1,
      "byteOffset": 24
    }
  ],
  "bufferViews": [
    {
      "buffer": 0,
      "byteOffset": 0,
      "byteLength": 53988,
      "target": 34963
    },
    {
      "buffer": 0,
      "byteOffset": 53988,
      "byteLength": 159968,
      "byteStride": 32,
      "target": 34962
    }
  ],
  "samplers": [
    {
      "magFilter": 9729,
      "minFilter": 9987,
      "wrapS": 10497,
      "wrapT": 10497
    }
  ],
  "textures": [
    {
      "source": 1,
      "sampler": 0
    },
    {
      "source": 0,
      "sampler": 0
    },
    {
      "source": 2,
      "sampler": 0
    }
  ],
  "images": [
    {
      "name": "namaqualand_boulder_05_nor_gl",
      "mimeType": "image/jpeg",
      "uri": "textures/namaqualand_boulder_05_nor_gl_1k.jpg"
    },
    {
      "name": "namaqualand_boulder_05_diff",
      "mimeType": "image/jpeg",
      "uri": "textures/namaqualand_boulder_05_diff_1k.jpg"
    },
    {
      "name": "namaqualand_boulder_05_rough",
      "mimeType": "image/jpeg",
      "uri": "textures/namaqualand_boulder_05_arm_1k.jpg"
    }
  ],
  "buffers": [
    {
      "uri": "namaqualand_boulder_05.bin",
      "byteLength": 213956
    }
  ],
  "materials": [
    {
      "name": "namaqualand_boulder_05",
      "doubleSided": true,
      "pbrMetallicRoughness": {
        "metallicFactor": 0,
        "baseColorTexture": {
          "index": 0
        },
        "metallicRoughnessTexture": {
          "index": 2
        }
      },
      "normalTexture": {
        "index": 1
      }
    }
  ],
  "meshes": [
    {
      "name": "Boulder",
      "primitives": [
        {
          "attributes": {
            "POSITION": 1,
            "NORMAL": 2,
            "TEXCOORD_0": 3
          },
          "mode": 4,
          "material": 0,
          "indices": 0
        }
      ]
    }
  ],
  "nodes": [
    {
      "name": "namaqualand_boulder_05",
      "mesh": 0
    }
  ],
  "scenes": [
    {
      "name": "Scene",
      "nodes": [
        0
      ]
    }
  ],
  "scene": 0
}