{
  "asset": {
    "generator": "glTF-Transform v4.5.0",
    "version": "2.0"
  },
  "accessors": [
    {
      "type": "VEC3",
      "componentType": 5126,
      "count": 2278,
      "max": [
        0.7121797800064087,
        0.1949031502008438,
        0.7183254957199097
      ],
      "min": [
        -0.736316442489624,
        -0.19342292845249176,
        -0.7149089574813843
      ],
      "bufferView": 0,
      "byteOffset": 0
    },
    {
      "type": "VEC3",
      "componentType": 5126,
      "count": 2278,
      "bufferView": 0,
      "byteOffset": 12
    },
    {
      "type": "VEC2",
      "componentType": 5126,
      "count": 2278,
      "bufferView": 0,
      "byteOffset": 24
    },
    {
      "type": "SCALAR",
      "componentType": 5123,
      "count": 11661,
      "bufferView": 1,
      "byteOffset": 0
    }
  ],
  "bufferViews": [
    {
      "buffer": 0,
      "byteOffset": 0,
      "byteLength": 72896,
      "byteStride": 32,
      "target": 34962
    },
    {
      "buffer": 0,
      "byteOffset": 72896,
      "byteLength": 23324,
      "target": 34963
    }
  ],
  "samplers": [
    {
      "magFilter": 9729,
      "minFilter": 9987,
      "wrapS": 10497,
      "wrapT": 10497
    }
  ],
  "textures": [
    {
      "source": 1,
      "sampler": 0
    },
    {
      "source": 0,
      "sampler": 0
    },
    {
      "source": 2,
      "sampler": 0
    }
  ],
  "images": [
    {
      "name": "stone_fire_pit_nor_gl",
      "mimeType": "image/jpeg",
      "uri": "textures/stone_fire_pit_nor_gl_2k.jpg"
    },
    {
      "name": "stone_fire_pit_diff",
      "mimeType": "image/jpeg",
      "uri": "textures/stone_fire_pit_diff_2k.jpg"
    },
    {
      "name": "stone_fire_pit_rough",
      "mimeType": "image/jpeg",
      "uri": "textures/stone_fire_pit_arm_2k.jpg"
    }
  ],
  "buffers": [
    {
      "uri": "stone_fire_pit.bin",
      "byteLength": 96220
    }
  ],
  "materials": [
    {
      "name": "stone_fire_pit",
      "doubleSided": true,
      "pbrMetallicRoughness": {
        "metallicFactor": 0,
        "baseColorTexture": {
          "index": 0
        },
        "metallicRoughnessTexture": {
          "index": 2
        }
      },
      "normalTexture": {
        "index": 1
      }
    }
  ],
  "meshes": [
    {
      "name": "texturedMesh.002",
      "primitives": [
        {
          "attributes": {
            "POSITION": 0,
            "NORMAL": 1,
            "TEXCOORD_0": 2
          },
          "mode": 4,
          "material": 0,
          "indices": 3
        }
      ]
    }
  ],
  "nodes": [
    {
      "name": "stone_fire_pit",
      "mesh": 0
    }
  ],
  "scenes": [
    {
      "name": "Scene",
      "nodes": [
        0
      ]
    }
  ],
  "scene": 0
}