{
  "asset": {
    "generator": "glTF-Transform v4.5.0",
    "version": "2.0"
  },
  "accessors": [
    {
      "type": "SCALAR",
      "componentType": 5123,
      "count": 27000,
      "bufferView": 0,
      "byteOffset": 0
    },
    {
      "type": "VEC3",
      "componentType": 5126,
      "count": 5110,
      "max": [
        2.8199098110198975,
        3.5296897888183594,
        0.36125504970550537
      ],
      "min": [
        -2.133601427078247,
        -0.03435921296477318,
        -3.466048240661621
      ],
      "bufferView": 1,
      "byteOffset": 0
    },
    {
      "type": "VEC3",
      "componentType": 5126,
      "count": 5110,
      "bufferView": 1,
      "byteOffset": 12
    },
    {
      "type": "VEC2",
      "componentType": 5126,
      "count": 5110,
      "bufferView": 1,
      "byteOffset": 24
    }
  ],
  "bufferViews": [
    {
      "buffer": 0,
      "byteOffset": 0,
      "byteLength": 54000,
      "target": 34963
    },
    {
      "buffer": 0,
      "byteOffset": 54000,
      "byteLength": 163520,
      "byteStride": 32,
      "target": 34962
    }
  ],
  "samplers": [
    {
      "magFilter": 9729,
      "minFilter": 9987,
      "wrapS": 10497,
      "wrapT": 10497
    }
  ],
  "textures": [
    {
      "source": 1,
      "sampler": 0
    },
    {
      "source": 0,
      "sampler": 0
    },
    {
      "source": 2,
      "sampler": 0
    }
  ],
  "images": [
    {
      "name": "rock_face_01_nor_gl",
      "mimeType": "image/jpeg",
      "uri": "textures/rock_face_01_nor_gl_2k.jpg"
    },
    {
      "name": "rock_face_01_diff",
      "mimeType": "image/jpeg",
      "uri": "textures/rock_face_01_diff_2k.jpg"
    },
    {
      "name": "rock_face_01_rough",
      "mimeType": "image/jpeg",
      "uri": "textures/rock_face_01_arm_2k.jpg"
    }
  ],
  "buffers": [
    {
      "uri": "rock_face_01.bin",
      "byteLength": 217520
    }
  ],
  "materials": [
    {
      "name": "rock_face_01",
      "doubleSided": true,
      "pbrMetallicRoughness": {
        "metallicFactor": 0,
        "baseColorTexture": {
          "index": 0
        },
        "metallicRoughnessTexture": {
          "index": 2
        }
      },
      "normalTexture": {
        "index": 1
      }
    }
  ],
  "meshes": [
    {
      "name": "rock_face_section_1_proxy",
      "primitives": [
        {
          "attributes": {
            "POSITION": 1,
            "NORMAL": 2,
            "TEXCOORD_0": 3
          },
          "mode": 4,
          "material": 0,
          "indices": 0
        }
      ]
    }
  ],
  "nodes": [
    {
      "name": "rock_face_01",
      "mesh": 0
    }
  ],
  "scenes": [
    {
      "name": "Scene",
      "nodes": [
        0
      ]
    }
  ],
  "scene": 0
}